<svg id="visual" viewBox="0 0 1920 1080" width="1920" height="1080" xmlns="http://www.w3.org/2000/svg" xmlns:xlink="http://www.w3.org/1999/xlink" version="1.1"><path d="M0 583L64 628.2C128 673.3 256 763.7 384 778.8C512 794 640 734 768 685.3C896 636.7 1024 599.3 1152 601.3C1280 603.3 1408 644.7 1536 658.2C1664 671.7 1792 657.3 1856 650.2L1920 643L1920 1081L1856 1081C1792 1081 1664 1081 1536 1081C1408 1081 1280 1081 1152 1081C1024 1081 896 1081 768 1081C640 1081 512 1081 384 1081C256 1081 128 1081 64 1081L0 1081Z" fill="#b69f72" stroke-linecap="round" stroke-linejoin="miter"></path></svg>