<svg id="visual" viewBox="0 0 1920 1080" width="1920" height="1080" xmlns="http://www.w3.org/2000/svg" xmlns:xlink="http://www.w3.org/1999/xlink" version="1.1"><path d="M0 553L80 587.8C160 622.7 320 692.3 480 707.8C640 723.3 800 684.7 960 649.2C1120 613.7 1280 581.3 1440 570.3C1600 559.3 1760 569.7 1840 574.8L1920 580L1920 1081L1840 1081C1760 1081 1600 1081 1440 1081C1280 1081 1120 1081 960 1081C800 1081 640 1081 480 1081C320 1081 160 1081 80 1081L0 1081Z" fill="#b69f72" stroke-linecap="round" stroke-linejoin="miter"></path></svg>