<svg id="visual" viewBox="0 0 1920 1080" width="1920" height="1080" xmlns="http://www.w3.org/2000/svg" xmlns:xlink="http://www.w3.org/1999/xlink" version="1.1"><path d="M0 495L64 449.8C128 404.7 256 314.3 384 299.2C512 284 640 344 768 392.7C896 441.3 1024 478.7 1152 476.7C1280 474.7 1408 433.3 1536 419.8C1664 406.3 1792 420.7 1856 427.8L1920 435L1920 0L1856 0C1792 0 1664 0 1536 0C1408 0 1280 0 1152 0C1024 0 896 0 768 0C640 0 512 0 384 0C256 0 128 0 64 0L0 0Z" fill="#b69f72" stroke-linecap="round" stroke-linejoin="miter"></path></svg>